<svg xmlns="http://www.w3.org/2000/svg" viewBox="0 0 1024 1024" role="img" aria-labelledby="title desc">
  <title id="title">Miroservice Manager Logo</title>
  <desc id="desc">A terminal mark inside a dashed service ring on a dark rounded square.</desc>
  <defs>
    <linearGradient id="blue" x1="278" y1="159" x2="764" y2="849" gradientUnits="userSpaceOnUse">
      <stop offset="0" stop-color="#43c3fb" />
      <stop offset="1" stop-color="#19a9e2" />
    </linearGradient>
  </defs>
  <rect x="128" y="128" width="768" height="768" rx="162" fill="#071225" stroke="#2f3a51" stroke-width="20" />
  <g fill="none" stroke="url(#blue)" stroke-width="52" stroke-linecap="butt">
    <path d="M285 300a356 356 0 0 1 173-91" />
    <path d="M551 203a356 356 0 0 1 169 80" />
    <path d="M790 377a356 356 0 0 1 54 177" />
    <path d="M804 652a356 356 0 0 1-133 137" />
    <path d="M566 837a356 356 0 0 1-187-46" />
    <path d="M292 735a356 356 0 0 1-93-168" />
    <path d="M203 466a356 356 0 0 1 95-184" />
  </g>
  <g fill="url(#blue)">
    <circle cx="512" cy="192" r="40" />
    <circle cx="832" cy="512" r="40" />
    <circle cx="512" cy="832" r="40" />
    <circle cx="192" cy="512" r="40" />
    <rect x="384" y="384" width="256" height="256" rx="38" />
  </g>
  <g fill="#071225">
    <path d="M442 438a25 25 0 0 1 35 0l57 57a25 25 0 0 1 0 35l-57 57a25 25 0 1 1-35-36l39-39-39-39a25 25 0 0 1 0-35Z" />
    <rect x="492" y="493" width="104" height="38" rx="19" />
  </g>
</svg>
